<?xml version="1.0" encoding="UTF-8" standalone="no"?>
<!DOCTYPE svg PUBLIC "-//W3C//DTD SVG 1.1//EN" "http://www.w3.org/Graphics/SVG/1.1/DTD/svg11.dtd">
<svg width="100%" height="100%" viewBox="0 0 256 256" version="1.1" xmlns="http://www.w3.org/2000/svg" xmlns:xlink="http://www.w3.org/1999/xlink" xml:space="preserve" xmlns:serif="http://www.serif.com/" style="fill-rule:evenodd;clip-rule:evenodd;stroke-linejoin:round;stroke-miterlimit:1.41421;">
    <g transform="matrix(0.468179,0,0,0.468179,-10.239,-21.5026)">
        <g id="Serve">
            <g transform="matrix(0,-4.16667,-4.16667,0,295.62,97.4488)">
                <path d="M-2.126,-2.126C-3.3,-2.126 -4.252,-1.174 -4.252,0C-4.252,1.175 -3.3,2.126 -2.126,2.126C-0.952,2.126 0,1.175 0,0C0,-1.174 -0.952,-2.126 -2.126,-2.126" style="fill:rgb(92,125,142);fill-rule:nonzero;"/>
            </g>
            <g transform="matrix(0.723267,-4.10341,-4.10341,-0.723267,335.63,101.278)">
                <path d="M-2.094,-1.757C-3.268,-1.757 -4.221,-0.805 -4.22,0.369C-4.22,1.543 -3.268,2.496 -2.094,2.494C-0.919,2.494 0.033,1.543 0.032,0.369C0.032,-0.806 -0.92,-1.758 -2.094,-1.757" style="fill:rgb(92,125,142);fill-rule:nonzero;"/>
            </g>
            <g transform="matrix(1.42472,-3.91552,-3.91552,-1.42472,374.148,112.485)">
                <path d="M-1.998,-1.399C-3.173,-1.399 -4.124,-0.447 -4.124,0.728C-4.124,1.901 -3.172,2.853 -1.998,2.853C-0.823,2.854 0.128,1.901 0.128,0.727C0.128,-0.447 -0.823,-1.398 -1.998,-1.399" style="fill:rgb(92,125,142);fill-rule:nonzero;"/>
            </g>
            <g transform="matrix(2.08305,-3.6086,-3.6086,-2.08305,409.754,130.589)">
                <path d="M-1.842,-1.063C-3.016,-1.062 -3.968,-0.111 -3.967,1.063C-3.968,2.238 -3.016,3.189 -1.842,3.189C-0.667,3.189 0.284,2.237 0.285,1.062C0.284,-0.111 -0.667,-1.063 -1.842,-1.063" style="fill:rgb(92,125,142);fill-rule:nonzero;"/>
            </g>
            <g transform="matrix(2.67783,-3.19223,-3.19223,-2.67783,441.188,154.824)">
                <path d="M-1.629,-0.76C-2.803,-0.759 -3.755,0.192 -3.755,1.366C-3.755,2.542 -2.804,3.492 -1.629,3.492C-0.455,3.492 0.497,2.54 0.496,1.366C0.496,0.191 -0.456,-0.76 -1.629,-0.76" style="fill:rgb(92,125,142);fill-rule:nonzero;"/>
            </g>
            <g transform="matrix(3.19231,-2.67774,-2.67774,-3.19231,467.401,184.21)">
                <path d="M-1.366,-0.497C-2.54,-0.497 -3.492,0.455 -3.492,1.629C-3.492,2.803 -2.541,3.754 -1.366,3.754C-0.192,3.755 0.76,2.804 0.76,1.629C0.761,0.455 -0.192,-0.496 -1.366,-0.497" style="fill:rgb(92,125,142);fill-rule:nonzero;"/>
            </g>
            <g transform="matrix(3.60836,-2.08348,-2.08348,-3.60836,487.599,217.546)">
                <path d="M-1.063,-0.285C-2.238,-0.284 -3.189,0.667 -3.189,1.841C-3.189,3.015 -2.238,3.968 -1.063,3.967C0.111,3.967 1.062,3.016 1.062,1.842C1.063,0.667 0.111,-0.285 -1.063,-0.285" style="fill:rgb(92,125,142);fill-rule:nonzero;"/>
            </g>
            <g transform="matrix(3.91552,-1.42472,-1.42472,-3.91552,501.258,253.583)">
                <path d="M-0.727,-0.128C-1.902,-0.128 -2.853,0.823 -2.853,1.998C-2.854,3.172 -1.902,4.124 -0.727,4.124C0.446,4.124 1.399,3.172 1.399,1.998C1.399,0.824 0.448,-0.128 -0.727,-0.128" style="fill:rgb(92,125,142);fill-rule:nonzero;"/>
            </g>
            <g transform="matrix(4.10341,-0.723267,-0.723267,-4.10341,508.146,291.002)">
                <path d="M-0.369,-0.032C-1.543,-0.033 -2.495,0.919 -2.495,2.094C-2.495,3.268 -1.544,4.219 -0.369,4.219C0.805,4.219 1.757,3.268 1.757,2.094C1.757,0.92 0.805,-0.032 -0.369,-0.032" style="fill:rgb(92,125,142);fill-rule:nonzero;"/>
            </g>
            <g transform="matrix(4.16667,0,0,4.16667,508.29,310.817)">
                <path d="M0,4.252C-1.174,4.252 -2.126,3.3 -2.126,2.126C-2.126,0.952 -1.174,0 0,0C1.175,0 2.126,0.952 2.126,2.126C2.126,3.3 1.175,4.252 0,4.252" style="fill:rgb(92,125,142);fill-rule:nonzero;"/>
            </g>
            <g transform="matrix(-0.723267,-4.10341,-4.10341,0.723267,292.588,240.866)">
                <path d="M-2.095,-2.496C-3.268,-2.495 -4.221,-1.544 -4.22,-0.37C-4.221,0.804 -3.269,1.757 -2.095,1.756C-0.921,1.757 0.031,0.804 0.032,-0.37C0.032,-1.543 -0.92,-2.496 -2.095,-2.496" style="fill:rgb(92,125,142);fill-rule:nonzero;"/>
            </g>
            <g transform="matrix(-0.723267,-4.10341,-4.10341,0.723267,292.934,312.05)">
                <path d="M-2.094,-2.496C-3.267,-2.496 -4.22,-1.544 -4.22,-0.369C-4.22,0.804 -3.268,1.756 -2.094,1.756C-0.92,1.757 0.033,0.804 0.033,-0.37C0.032,-1.543 -0.92,-2.496 -2.094,-2.496" style="fill:rgb(92,125,142);fill-rule:nonzero;"/>
            </g>
            <g transform="matrix(-0.723267,-4.10341,-4.10341,0.723267,292.588,169.382)">
                <path d="M-2.095,-2.496C-3.268,-2.495 -4.221,-1.544 -4.221,-0.369C-4.221,0.804 -3.269,1.757 -2.095,1.756C-0.921,1.757 0.031,0.804 0.032,-0.37C0.032,-1.543 -0.92,-2.496 -2.095,-2.496" style="fill:rgb(92,125,142);fill-rule:nonzero;"/>
            </g>
            <g transform="matrix(-0.723267,-4.10341,-4.10341,0.723267,327.984,174.342)">
                <path d="M-2.094,-2.496C-3.267,-2.496 -4.22,-1.544 -4.22,-0.369C-4.22,0.804 -3.268,1.756 -2.094,1.756C-0.92,1.757 0.033,0.804 0.033,-0.37C0.032,-1.543 -0.92,-2.496 -2.094,-2.496" style="fill:rgb(92,125,142);fill-rule:nonzero;"/>
            </g>
            <g transform="matrix(-0.723267,-4.10341,-4.10341,0.723267,362.897,188.736)">
                <path d="M-2.093,-2.495C-3.267,-2.495 -4.22,-1.544 -4.22,-0.369C-4.22,0.805 -3.268,1.757 -2.093,1.757C-0.92,1.757 0.033,0.805 0.033,-0.369C0.033,-1.543 -0.92,-2.496 -2.093,-2.495" style="fill:rgb(92,125,142);fill-rule:nonzero;"/>
            </g>
            <g transform="matrix(-0.724217,-4.10325,-4.10325,0.724217,392.301,211.426)">
                <path d="M-2.094,-2.496C-3.269,-2.496 -4.22,-1.544 -4.22,-0.369C-4.22,0.805 -3.268,1.756 -2.094,1.756C-0.92,1.757 0.033,0.804 0.032,-0.37C0.032,-1.544 -0.92,-2.496 -2.094,-2.496" style="fill:rgb(92,125,142);fill-rule:nonzero;"/>
            </g>
            <g transform="matrix(-0.723267,-4.10341,-4.10341,0.723267,415.918,241.285)">
                <path d="M-2.094,-2.495C-3.268,-2.496 -4.22,-1.544 -4.22,-0.369C-4.221,0.805 -3.269,1.756 -2.094,1.756C-0.92,1.758 0.032,0.805 0.032,-0.369C0.033,-1.543 -0.92,-2.495 -2.094,-2.495" style="fill:rgb(92,125,142);fill-rule:nonzero;"/>
            </g>
            <g transform="matrix(-0.723267,-4.10341,-4.10341,0.723267,430.155,275.66)">
                <path d="M-2.094,-2.494C-3.268,-2.494 -4.22,-1.544 -4.22,-0.369C-4.219,0.806 -3.269,1.757 -2.094,1.757C-0.92,1.758 0.032,0.806 0.032,-0.368C0.032,-1.543 -0.92,-2.495 -2.094,-2.494" style="fill:rgb(92,125,142);fill-rule:nonzero;"/>
            </g>
            <g transform="matrix(-0.723267,-4.10341,-4.10341,0.723267,435.707,311.773)">
                <path d="M-2.094,-2.496C-3.267,-2.496 -4.22,-1.544 -4.22,-0.369C-4.22,0.804 -3.268,1.756 -2.094,1.756C-0.92,1.757 0.033,0.804 0.033,-0.37C0.032,-1.543 -0.92,-2.496 -2.094,-2.496" style="fill:rgb(92,125,142);fill-rule:nonzero;"/>
            </g>
            <g transform="matrix(1.42472,-3.91552,-3.91552,-1.42472,336.709,251.611)">
                <path d="M-1.998,-1.399C-3.173,-1.399 -4.124,-0.447 -4.124,0.728C-4.124,1.902 -3.172,2.853 -1.998,2.853C-0.824,2.853 0.128,1.901 0.128,0.727C0.128,-0.447 -0.824,-1.399 -1.998,-1.399" style="fill:rgb(92,125,142);fill-rule:nonzero;"/>
            </g>
            <g transform="matrix(3.19183,-2.67831,-2.67831,-3.19183,365.792,285.608)">
                <path d="M-1.367,-0.497C-2.54,-0.498 -3.493,0.454 -3.492,1.628C-3.493,2.802 -2.541,3.755 -1.366,3.754C-0.193,3.755 0.76,2.803 0.759,1.628C0.76,0.455 -0.193,-0.498 -1.367,-0.497" style="fill:rgb(92,125,142);fill-rule:nonzero;"/>
            </g>
            <g transform="matrix(4.10341,-0.723267,-0.723267,-4.10341,369.824,327.652)">
                <path d="M-0.369,-0.032C-1.543,-0.033 -2.495,0.919 -2.495,2.094C-2.496,3.268 -1.544,4.219 -0.369,4.219C0.805,4.22 1.757,3.268 1.757,2.094C1.757,0.92 0.805,-0.032 -0.369,-0.032" style="fill:rgb(92,125,142);fill-rule:nonzero;"/>
            </g>
        </g>
        <g>
            <g transform="matrix(-0.723267,-4.10341,-4.10341,0.723267,467.178,347.43)">
                <path d="M-2.094,-2.496C-3.268,-2.496 -4.22,-1.545 -4.22,-0.37C-4.221,0.804 -3.269,1.756 -2.094,1.755C-0.92,1.756 0.032,0.804 0.032,-0.37C0.031,-1.544 -0.92,-2.496 -2.094,-2.496" style="fill:rgb(185,202,210);fill-rule:nonzero;"/>
            </g>
            <g transform="matrix(-0.723267,-4.10341,-4.10341,0.723267,457.11,380.765)">
                <path d="M-2.094,-2.496C-3.267,-2.496 -4.22,-1.544 -4.22,-0.369C-4.22,0.804 -3.268,1.756 -2.094,1.756C-0.92,1.757 0.033,0.804 0.033,-0.37C0.032,-1.543 -0.92,-2.496 -2.094,-2.496" style="fill:rgb(185,202,210);fill-rule:nonzero;"/>
            </g>
            <g transform="matrix(-0.723267,-4.10341,-4.10341,0.723267,440.792,411.669)">
                <path d="M-2.093,-2.495C-3.267,-2.496 -4.219,-1.544 -4.219,-0.369C-4.219,0.805 -3.268,1.756 -2.093,1.756C-0.919,1.756 0.033,0.805 0.033,-0.369C0.033,-1.543 -0.919,-2.495 -2.093,-2.495" style="fill:rgb(185,202,210);fill-rule:nonzero;"/>
            </g>
            <g transform="matrix(-0.723267,-4.10341,-4.10341,0.723267,418.568,439.098)">
                <path d="M-2.094,-2.496C-3.267,-2.496 -4.22,-1.544 -4.22,-0.369C-4.22,0.804 -3.268,1.756 -2.094,1.756C-0.92,1.757 0.033,0.804 0.033,-0.37C0.032,-1.543 -0.92,-2.496 -2.094,-2.496" style="fill:rgb(185,202,210);fill-rule:nonzero;"/>
            </g>
            <g transform="matrix(-0.723267,-4.10341,-4.10341,0.723267,391.137,460.971)">
                <path d="M-2.094,-2.496C-3.268,-2.496 -4.22,-1.545 -4.22,-0.37C-4.221,0.804 -3.269,1.756 -2.094,1.755C-0.92,1.756 0.032,0.804 0.032,-0.37C0.031,-1.544 -0.92,-2.496 -2.094,-2.496" style="fill:rgb(185,202,210);fill-rule:nonzero;"/>
            </g>
            <g transform="matrix(-0.723267,-4.10341,-4.10341,0.723267,359.887,477.638)">
                <path d="M-2.094,-2.496C-3.268,-2.496 -4.22,-1.545 -4.22,-0.37C-4.221,0.804 -3.269,1.756 -2.094,1.755C-0.92,1.756 0.032,0.804 0.032,-0.37C0.031,-1.544 -0.92,-2.496 -2.094,-2.496" style="fill:rgb(185,202,210);fill-rule:nonzero;"/>
            </g>
            <g transform="matrix(-0.723267,-4.10341,-4.10341,0.723267,326.902,488.057)">
                <path d="M-2.094,-2.496C-3.267,-2.496 -4.22,-1.544 -4.22,-0.369C-4.22,0.804 -3.268,1.756 -2.094,1.756C-0.92,1.757 0.033,0.804 0.033,-0.37C0.032,-1.543 -0.92,-2.496 -2.094,-2.496" style="fill:rgb(185,202,210);fill-rule:nonzero;"/>
            </g>
            <g transform="matrix(-0.723267,-4.10341,-4.10341,0.723267,293.222,490.484)">
                <path d="M-2.095,-2.496C-3.268,-2.495 -4.221,-1.544 -4.221,-0.369C-4.221,0.804 -3.269,1.757 -2.095,1.756C-0.921,1.757 0.031,0.804 0.032,-0.37C0.032,-1.543 -0.92,-2.496 -2.095,-2.496" style="fill:rgb(185,202,210);fill-rule:nonzero;"/>
            </g>
            <g transform="matrix(-0.723267,-4.10341,-4.10341,0.723267,257.803,488.055)">
                <path d="M-2.094,-2.496C-3.268,-2.496 -4.22,-1.545 -4.22,-0.37C-4.221,0.804 -3.269,1.756 -2.094,1.755C-0.92,1.756 0.032,0.804 0.032,-0.37C0.031,-1.544 -0.92,-2.496 -2.094,-2.496" style="fill:rgb(185,202,210);fill-rule:nonzero;"/>
            </g>
            <g transform="matrix(-0.723267,-4.10341,-4.10341,0.723267,224.47,477.29)">
                <path d="M-2.094,-2.496C-3.268,-2.496 -4.22,-1.545 -4.22,-0.37C-4.221,0.804 -3.269,1.756 -2.094,1.755C-0.92,1.756 0.032,0.804 0.032,-0.37C0.031,-1.544 -0.92,-2.496 -2.094,-2.496" style="fill:rgb(185,202,210);fill-rule:nonzero;"/>
            </g>
            <g transform="matrix(-0.723267,-4.10341,-4.10341,0.723267,193.57,461.319)">
                <path d="M-2.094,-2.495C-3.268,-2.496 -4.22,-1.544 -4.22,-0.369C-4.221,0.805 -3.269,1.756 -2.094,1.756C-0.92,1.758 0.032,0.805 0.032,-0.369C0.033,-1.543 -0.919,-2.495 -2.094,-2.495" style="fill:rgb(185,202,210);fill-rule:nonzero;"/>
            </g>
            <g transform="matrix(-0.723267,-4.10341,-4.10341,0.723267,166.201,439.476)">
                <path d="M-2.093,-2.495C-3.267,-2.495 -4.22,-1.543 -4.219,-0.369C-4.22,0.805 -3.268,1.757 -2.093,1.757C-0.92,1.757 0.033,0.805 0.033,-0.369C0.033,-1.542 -0.919,-2.495 -2.093,-2.495" style="fill:rgb(185,202,210);fill-rule:nonzero;"/>
            </g>
            <g transform="matrix(-0.723267,-4.10341,-4.10341,0.723267,143.432,411.671)">
                <path d="M-2.094,-2.496C-3.268,-2.496 -4.22,-1.545 -4.22,-0.37C-4.221,0.804 -3.269,1.756 -2.094,1.755C-0.92,1.756 0.032,0.804 0.032,-0.37C0.031,-1.544 -0.92,-2.496 -2.094,-2.496" style="fill:rgb(185,202,210);fill-rule:nonzero;"/>
            </g>
            <g transform="matrix(-0.723267,-4.10341,-4.10341,0.723267,127.691,380.445)">
                <path d="M-2.095,-2.496C-3.268,-2.495 -4.221,-1.544 -4.221,-0.369C-4.221,0.804 -3.269,1.757 -2.095,1.756C-0.921,1.757 0.031,0.804 0.032,-0.37C0.032,-1.543 -0.921,-2.496 -2.095,-2.496" style="fill:rgb(185,202,210);fill-rule:nonzero;"/>
            </g>
            <g transform="matrix(-0.723267,-4.10341,-4.10341,0.723267,117.164,347.521)">
                <path d="M-2.095,-2.496C-3.268,-2.495 -4.221,-1.544 -4.22,-0.37C-4.221,0.804 -3.269,1.757 -2.095,1.756C-0.921,1.757 0.031,0.804 0.032,-0.37C0.032,-1.543 -0.92,-2.496 -2.095,-2.496" style="fill:rgb(185,202,210);fill-rule:nonzero;"/>
            </g>
            <g transform="matrix(-0.723267,-4.10341,-4.10341,0.723267,114.388,312.106)">
                <path d="M-2.094,-2.495C-3.268,-2.496 -4.22,-1.544 -4.219,-0.369C-4.221,0.805 -3.269,1.756 -2.094,1.756C-0.92,1.758 0.032,0.805 0.032,-0.369C0.033,-1.543 -0.919,-2.495 -2.094,-2.495" style="fill:rgb(185,202,210);fill-rule:nonzero;"/>
            </g>
            <g transform="matrix(-0.723267,-4.10341,-4.10341,0.723267,117.515,278.771)">
                <path d="M-2.095,-2.495C-3.268,-2.495 -4.221,-1.543 -4.22,-0.369C-4.22,0.805 -3.269,1.757 -2.095,1.757C-0.921,1.758 0.032,0.805 0.032,-0.368C0.032,-1.542 -0.92,-2.495 -2.095,-2.495" style="fill:rgb(185,202,210);fill-rule:nonzero;"/>
            </g>
            <g transform="matrix(-0.723267,-4.10341,-4.10341,0.723267,127.581,245.09)">
                <path d="M-2.095,-2.496C-3.268,-2.495 -4.221,-1.544 -4.221,-0.369C-4.221,0.804 -3.269,1.757 -2.095,1.756C-0.921,1.757 0.031,0.804 0.032,-0.37C0.032,-1.543 -0.921,-2.496 -2.095,-2.496" style="fill:rgb(185,202,210);fill-rule:nonzero;"/>
            </g>
            <g transform="matrix(-0.723267,-4.10341,-4.10341,0.723267,143.903,213.844)">
                <path d="M-2.093,-2.495C-3.267,-2.495 -4.22,-1.543 -4.22,-0.368C-4.22,0.805 -3.268,1.757 -2.093,1.757C-0.92,1.757 0.033,0.805 0.033,-0.369C0.033,-1.542 -0.92,-2.495 -2.093,-2.495" style="fill:rgb(185,202,210);fill-rule:nonzero;"/>
            </g>
            <g transform="matrix(-0.723267,-4.10341,-4.10341,0.723267,166.121,187.453)">
                <path d="M-2.094,-2.496C-3.268,-2.496 -4.22,-1.545 -4.22,-0.37C-4.221,0.804 -3.269,1.756 -2.094,1.755C-0.92,1.756 0.032,0.804 0.032,-0.37C0.031,-1.544 -0.92,-2.496 -2.094,-2.496" style="fill:rgb(185,202,210);fill-rule:nonzero;"/>
            </g>
            <g transform="matrix(-0.723267,-4.10341,-4.10341,0.723267,193.903,164.886)">
                <path d="M-2.093,-2.495C-3.267,-2.495 -4.22,-1.543 -4.22,-0.368C-4.22,0.805 -3.268,1.757 -2.093,1.757C-0.92,1.757 0.033,0.805 0.033,-0.369C0.033,-1.542 -0.92,-2.495 -2.093,-2.495" style="fill:rgb(185,202,210);fill-rule:nonzero;"/>
            </g>
            <g transform="matrix(-0.723267,-4.10341,-4.10341,0.723267,224.456,148.563)">
                <path d="M-2.095,-2.496C-3.268,-2.495 -4.221,-1.544 -4.22,-0.37C-4.221,0.804 -3.269,1.757 -2.095,1.756C-0.921,1.757 0.031,0.804 0.032,-0.37C0.032,-1.543 -0.92,-2.496 -2.095,-2.496" style="fill:rgb(185,202,210);fill-rule:nonzero;"/>
            </g>
            <g transform="matrix(-0.723267,-4.10341,-4.10341,0.723267,257.444,138.15)">
                <path d="M-2.093,-2.495C-3.267,-2.495 -4.22,-1.543 -4.219,-0.369C-4.22,0.805 -3.268,1.757 -2.093,1.757C-0.92,1.757 0.033,0.805 0.033,-0.369C0.033,-1.542 -0.919,-2.495 -2.093,-2.495" style="fill:rgb(185,202,210);fill-rule:nonzero;"/>
            </g>
            <g transform="matrix(-0.723267,-4.10341,-4.10341,0.723267,430.499,348.231)">
                <path d="M-2.094,-2.496C-3.267,-2.496 -4.22,-1.544 -4.22,-0.369C-4.22,0.804 -3.268,1.756 -2.094,1.756C-0.92,1.757 0.033,0.804 0.033,-0.37C0.032,-1.543 -0.92,-2.496 -2.094,-2.496" style="fill:rgb(185,202,210);fill-rule:nonzero;"/>
            </g>
            <g transform="matrix(-0.723267,-4.10341,-4.10341,0.723267,416.263,382.952)">
                <path d="M-2.094,-2.495C-3.268,-2.496 -4.22,-1.544 -4.22,-0.369C-4.221,0.805 -3.269,1.756 -2.094,1.756C-0.92,1.758 0.032,0.805 0.032,-0.369C0.033,-1.543 -0.92,-2.495 -2.094,-2.495" style="fill:rgb(185,202,210);fill-rule:nonzero;"/>
            </g>
            <g transform="matrix(-0.723267,-4.10341,-4.10341,0.723267,393.345,413.856)">
                <path d="M-2.094,-2.496C-3.267,-2.496 -4.22,-1.544 -4.22,-0.369C-4.22,0.804 -3.268,1.756 -2.094,1.756C-0.92,1.757 0.033,0.804 0.033,-0.37C0.032,-1.543 -0.92,-2.496 -2.094,-2.496" style="fill:rgb(185,202,210);fill-rule:nonzero;"/>
            </g>
            <g transform="matrix(-0.724217,-4.10325,-4.10325,0.724217,363.83,436.426)">
                <path d="M-2.094,-2.496C-3.269,-2.496 -4.22,-1.544 -4.22,-0.369C-4.22,0.805 -3.268,1.756 -2.094,1.756C-0.92,1.757 0.033,0.804 0.032,-0.37C0.032,-1.544 -0.92,-2.496 -2.094,-2.496" style="fill:rgb(185,202,210);fill-rule:nonzero;"/>
            </g>
            <g transform="matrix(-0.723267,-4.10341,-4.10341,0.723267,329.112,450.662)">
                <path d="M-2.093,-2.495C-3.267,-2.495 -4.22,-1.544 -4.22,-0.369C-4.22,0.805 -3.268,1.757 -2.093,1.757C-0.92,1.757 0.033,0.805 0.033,-0.369C0.033,-1.543 -0.92,-2.496 -2.093,-2.495" style="fill:rgb(185,202,210);fill-rule:nonzero;"/>
            </g>
            <g transform="matrix(-0.723267,-4.10341,-4.10341,0.723267,293.345,454.481)">
                <path d="M-2.094,-2.496C-3.267,-2.496 -4.22,-1.544 -4.22,-0.369C-4.22,0.804 -3.268,1.756 -2.094,1.756C-0.92,1.757 0.033,0.804 0.033,-0.37C0.032,-1.543 -0.92,-2.496 -2.094,-2.496" style="fill:rgb(185,202,210);fill-rule:nonzero;"/>
            </g>
            <g transform="matrix(-0.724217,-4.10325,-4.10325,0.724217,256.539,452.051)">
                <path d="M-2.094,-2.496C-3.269,-2.496 -4.22,-1.544 -4.22,-0.369C-4.22,0.805 -3.268,1.756 -2.094,1.756C-0.92,1.757 0.033,0.804 0.032,-0.37C0.032,-1.544 -0.92,-2.496 -2.094,-2.496" style="fill:rgb(185,202,210);fill-rule:nonzero;"/>
            </g>
            <g transform="matrix(-0.723267,-4.10341,-4.10341,0.723267,221.82,437.121)">
                <path d="M-2.093,-2.495C-3.267,-2.495 -4.22,-1.544 -4.22,-0.369C-4.22,0.805 -3.268,1.757 -2.093,1.757C-0.92,1.757 0.033,0.805 0.033,-0.369C0.033,-1.543 -0.92,-2.496 -2.093,-2.495" style="fill:rgb(185,202,210);fill-rule:nonzero;"/>
            </g>
            <g transform="matrix(-0.723267,-4.10341,-4.10341,0.723267,191.61,413.858)">
                <path d="M-2.093,-2.495C-3.267,-2.496 -4.219,-1.545 -4.219,-0.37C-4.219,0.805 -3.268,1.756 -2.093,1.756C-0.919,1.756 0.033,0.805 0.033,-0.369C0.032,-1.544 -0.919,-2.496 -2.093,-2.495" style="fill:rgb(185,202,210);fill-rule:nonzero;"/>
            </g>
            <g transform="matrix(-0.724217,-4.10325,-4.10325,0.724217,169.039,384.342)">
                <path d="M-2.094,-2.496C-3.269,-2.496 -4.22,-1.544 -4.22,-0.369C-4.22,0.805 -3.268,1.756 -2.094,1.756C-0.92,1.757 0.033,0.804 0.032,-0.37C0.032,-1.544 -0.92,-2.496 -2.094,-2.496" style="fill:rgb(185,202,210);fill-rule:nonzero;"/>
            </g>
            <g transform="matrix(-0.724217,-4.10325,-4.10325,0.724217,154.455,349.967)">
                <path d="M-2.094,-2.496C-3.269,-2.496 -4.22,-1.544 -4.22,-0.369C-4.22,0.805 -3.268,1.756 -2.094,1.756C-0.92,1.757 0.033,0.804 0.032,-0.37C0.032,-1.544 -0.92,-2.496 -2.094,-2.496" style="fill:rgb(185,202,210);fill-rule:nonzero;"/>
            </g>
            <g transform="matrix(-0.723267,-4.10341,-4.10341,0.723267,149.945,312.121)">
                <path d="M-2.093,-2.495C-3.267,-2.495 -4.22,-1.544 -4.22,-0.369C-4.22,0.805 -3.268,1.757 -2.093,1.757C-0.92,1.757 0.033,0.805 0.033,-0.369C0.033,-1.543 -0.92,-2.496 -2.093,-2.495" style="fill:rgb(185,202,210);fill-rule:nonzero;"/>
            </g>
            <g transform="matrix(-0.723267,-4.10341,-4.10341,0.723267,153.765,277.741)">
                <path d="M-2.095,-2.495C-3.268,-2.495 -4.221,-1.543 -4.221,-0.368C-4.22,0.805 -3.269,1.757 -2.095,1.757C-0.921,1.758 0.032,0.805 0.032,-0.368C0.032,-1.542 -0.921,-2.494 -2.095,-2.495" style="fill:rgb(185,202,210);fill-rule:nonzero;"/>
            </g>
            <g transform="matrix(-0.723267,-4.10341,-4.10341,0.723267,168.695,242.329)">
                <path d="M-2.093,-2.495C-3.267,-2.495 -4.22,-1.544 -4.22,-0.369C-4.22,0.805 -3.268,1.757 -2.093,1.757C-0.92,1.757 0.033,0.805 0.033,-0.369C0.033,-1.543 -0.92,-2.496 -2.093,-2.495" style="fill:rgb(185,202,210);fill-rule:nonzero;"/>
            </g>
            <g transform="matrix(-0.724217,-4.10325,-4.10325,0.724217,190.914,212.467)">
                <path d="M-2.094,-2.496C-3.269,-2.496 -4.22,-1.544 -4.22,-0.369C-4.22,0.805 -3.268,1.756 -2.094,1.756C-0.92,1.757 0.033,0.804 0.032,-0.37C0.032,-1.544 -0.92,-2.496 -2.094,-2.496" style="fill:rgb(185,202,210);fill-rule:nonzero;"/>
            </g>
            <g transform="matrix(-0.724217,-4.10325,-4.10325,0.724217,221.122,189.551)">
                <path d="M-2.094,-2.496C-3.269,-2.496 -4.22,-1.544 -4.22,-0.369C-4.22,0.805 -3.268,1.756 -2.094,1.756C-0.92,1.757 0.033,0.804 0.032,-0.37C0.032,-1.544 -0.92,-2.496 -2.094,-2.496" style="fill:rgb(185,202,210);fill-rule:nonzero;"/>
            </g>
            <g transform="matrix(-0.723267,-4.10341,-4.10341,0.723267,255.499,175.315)">
                <path d="M-2.094,-2.496C-3.267,-2.496 -4.22,-1.544 -4.22,-0.369C-4.22,0.804 -3.268,1.756 -2.094,1.756C-0.92,1.757 0.033,0.804 0.033,-0.37C0.032,-1.543 -0.92,-2.496 -2.094,-2.496" style="fill:rgb(185,202,210);fill-rule:nonzero;"/>
            </g>
            <g transform="matrix(4.12609,0.580063,0.580063,-4.12609,394.683,361.346)">
                <path d="M0.296,-0.021C-0.879,-0.02 -1.83,0.932 -1.831,2.105C-1.83,3.28 -0.878,4.231 0.296,4.232C1.471,4.231 2.421,3.279 2.422,2.106C2.421,0.931 1.47,-0.02 0.296,-0.021" style="fill:rgb(185,202,210);fill-rule:nonzero;"/>
            </g>
            <g transform="matrix(3.74502,1.82646,1.82646,-3.74502,374.985,388.039)">
                <path d="M0.932,-0.215C-0.243,-0.215 -1.195,0.737 -1.194,1.911C-1.194,3.085 -0.242,4.037 0.932,4.037C2.106,4.037 3.057,3.085 3.058,1.911C3.057,0.737 2.107,-0.215 0.932,-0.215" style="fill:rgb(185,202,210);fill-rule:nonzero;"/>
            </g>
            <g transform="matrix(2.99727,2.89439,2.89439,-2.99727,349.5,406.506)">
                <path d="M1.477,-0.597C0.303,-0.597 -0.65,0.356 -0.65,1.529C-0.65,2.704 0.303,3.655 1.477,3.656C2.65,3.655 3.602,2.703 3.603,1.529C3.602,0.355 2.651,-0.597 1.477,-0.597" style="fill:rgb(185,202,210);fill-rule:nonzero;"/>
            </g>
            <g transform="matrix(1.95687,3.67856,3.67856,-1.95687,321.254,416.402)">
                <path d="M1.877,-1.128C0.703,-1.127 -0.248,-0.175 -0.248,0.998C-0.248,2.173 0.704,3.124 1.877,3.124C3.053,3.124 4.004,2.172 4.004,0.997C4.003,-0.176 3.052,-1.129 1.877,-1.128" style="fill:rgb(185,202,210);fill-rule:nonzero;"/>
            </g>
            <g transform="matrix(0.723267,4.10341,4.10341,-0.723267,292.59,418.256)">
                <path d="M2.094,-1.757C0.92,-1.757 -0.033,-0.805 -0.033,0.37C-0.033,1.543 0.919,2.495 2.094,2.495C3.267,2.495 4.22,1.543 4.22,0.369C4.22,-0.804 3.267,-1.758 2.094,-1.757" style="fill:rgb(185,202,210);fill-rule:nonzero;"/>
            </g>
            <g transform="matrix(-0.579102,4.12623,4.12623,0.579102,265.075,412.838)">
                <path d="M2.106,-2.422C0.931,-2.421 -0.02,-1.47 -0.021,-0.296C-0.02,0.879 0.932,1.831 2.106,1.831C3.28,1.831 4.231,0.879 4.232,-0.296C4.232,-1.471 3.28,-2.421 2.106,-2.422" style="fill:rgb(185,202,210);fill-rule:nonzero;"/>
            </g>
            <g transform="matrix(-1.82646,3.74502,3.74502,1.82646,239.866,400.743)">
                <path d="M1.911,-3.059C0.737,-3.058 -0.215,-2.106 -0.216,-0.933C-0.215,0.241 0.737,1.194 1.911,1.193C3.084,1.194 4.037,0.241 4.037,-0.933C4.036,-2.107 3.085,-3.059 1.911,-3.059" style="fill:rgb(185,202,210);fill-rule:nonzero;"/>
            </g>
            <g transform="matrix(-2.89439,2.99727,2.99727,2.89439,218.126,382.275)">
                <path d="M1.53,-3.603C0.356,-3.604 -0.596,-2.652 -0.597,-1.478C-0.597,-0.303 0.356,0.649 1.53,0.649C2.703,0.649 3.656,-0.303 3.655,-1.477C3.655,-2.652 2.703,-3.603 1.53,-3.603" style="fill:rgb(185,202,210);fill-rule:nonzero;"/>
            </g>
            <g transform="matrix(-3.67896,1.9561,1.9561,3.67896,201.457,357.782)">
                <path d="M0.999,-4.003C-0.175,-4.003 -1.127,-3.052 -1.127,-1.877C-1.127,-0.702 -0.175,0.249 0.999,0.249C2.172,0.249 3.124,-0.702 3.125,-1.877C3.124,-3.052 2.172,-4.003 0.999,-4.003" style="fill:rgb(185,202,210);fill-rule:nonzero;"/>
            </g>
            <g transform="matrix(-4.10325,0.724217,0.724217,4.10325,191.919,328.17)">
                <path d="M0.37,-4.219C-0.805,-4.219 -1.757,-3.267 -1.756,-2.093C-1.756,-0.919 -0.805,0.033 0.37,0.032C1.544,0.032 2.496,-0.92 2.495,-2.093C2.495,-3.267 1.543,-4.219 0.37,-4.219" style="fill:rgb(185,202,210);fill-rule:nonzero;"/>
            </g>
            <g transform="matrix(-4.12607,-0.580198,-0.580198,4.12607,191.671,295.383)">
                <path d="M-0.295,-4.232C-1.469,-4.231 -2.421,-3.279 -2.422,-2.106C-2.421,-0.932 -1.469,0.02 -0.295,0.02C0.878,0.02 1.83,-0.932 1.831,-2.105C1.83,-3.279 0.878,-4.231 -0.295,-4.232" style="fill:rgb(185,202,210);fill-rule:nonzero;"/>
            </g>
            <g transform="matrix(-3.74541,-1.82566,-1.82566,3.74541,202.295,262.567)">
                <path d="M-0.932,-4.036C-2.107,-4.036 -3.058,-3.083 -3.057,-1.909C-3.058,-0.736 -2.104,0.216 -0.932,0.216C0.243,0.216 1.195,-0.737 1.195,-1.91C1.194,-3.084 0.242,-4.037 -0.932,-4.036" style="fill:rgb(185,202,210);fill-rule:nonzero;"/>
            </g>
            <g transform="matrix(-2.99776,-2.89388,-2.89388,2.99776,224.033,233.812)">
                <path d="M-1.477,-3.655C-2.651,-3.655 -3.603,-2.702 -3.603,-1.529C-3.603,-0.354 -2.651,0.597 -1.477,0.597C-0.302,0.597 0.649,-0.355 0.65,-1.529C0.649,-2.703 -0.302,-3.655 -1.477,-3.655" style="fill:rgb(185,202,210);fill-rule:nonzero;"/>
            </g>
            <g transform="matrix(-1.9561,-3.67896,-3.67896,1.9561,255.291,213.391)">
                <path d="M-1.877,-3.125C-3.051,-3.125 -4.003,-2.173 -4.002,-0.999C-4.003,0.175 -3.051,1.127 -1.877,1.127C-0.702,1.128 0.25,0.176 0.249,-0.999C0.249,-2.173 -0.702,-3.125 -1.877,-3.125" style="fill:rgb(185,202,210);fill-rule:nonzero;"/>
            </g>
            <g transform="matrix(3.91552,1.42472,1.42472,-3.91552,351.895,361.512)">
                <path d="M0.727,-0.128C-0.448,-0.128 -1.4,0.824 -1.399,1.998C-1.399,3.172 -0.447,4.124 0.727,4.124C1.902,4.124 2.853,3.172 2.853,1.998C2.853,0.823 1.902,-0.127 0.727,-0.128" style="fill:rgb(185,202,210);fill-rule:nonzero;"/>
            </g>
            <g transform="matrix(2.67831,3.19183,3.19183,-2.67831,323.194,379.239)">
                <path d="M1.628,-0.759C0.455,-0.76 -0.498,0.192 -0.497,1.366C-0.498,2.54 0.455,3.492 1.629,3.492C2.803,3.492 3.755,2.541 3.754,1.366C3.755,0.193 2.802,-0.759 1.628,-0.759" style="fill:rgb(185,202,210);fill-rule:nonzero;"/>
            </g>
            <g transform="matrix(0.723267,4.10341,4.10341,-0.723267,293.632,382.18)">
                <path d="M2.094,-1.757C0.92,-1.757 -0.033,-0.805 -0.033,0.37C-0.033,1.543 0.919,2.495 2.094,2.495C3.267,2.495 4.22,1.543 4.22,0.369C4.22,-0.804 3.267,-1.758 2.094,-1.757" style="fill:rgb(185,202,210);fill-rule:nonzero;"/>
            </g>
            <g transform="matrix(-1.4259,3.91509,3.91509,1.4259,266.955,374.515)">
                <path d="M1.997,-2.852C0.824,-2.853 -0.128,-1.901 -0.129,-0.727C-0.129,0.447 0.823,1.398 1.997,1.399C3.171,1.4 4.122,0.448 4.123,-0.725C4.124,-1.9 3.172,-2.852 1.997,-2.852" style="fill:rgb(185,202,210);fill-rule:nonzero;"/>
            </g>
            <g transform="matrix(-3.19183,2.67831,2.67831,3.19183,243.933,357.167)">
                <path d="M1.366,-3.755C0.193,-3.755 -0.76,-2.803 -0.76,-1.629C-0.76,-0.455 0.191,0.497 1.366,0.496C2.54,0.497 3.492,-0.455 3.492,-1.629C3.493,-2.803 2.54,-3.755 1.366,-3.755" style="fill:rgb(185,202,210);fill-rule:nonzero;"/>
            </g>
            <g transform="matrix(-4.10341,0.723267,0.723267,4.10341,228.514,328.692)">
                <path d="M0.37,-4.219C-0.804,-4.22 -1.757,-3.268 -1.756,-2.093C-1.756,-0.919 -0.806,0.032 0.37,0.032C1.544,0.032 2.496,-0.919 2.495,-2.093C2.496,-3.267 1.544,-4.219 0.37,-4.219" style="fill:rgb(185,202,210);fill-rule:nonzero;"/>
            </g>
            <g transform="matrix(-3.91552,-1.42472,-1.42472,3.91552,228.999,291.761)">
                <path d="M-0.726,-4.124C-1.901,-4.125 -2.853,-3.172 -2.852,-1.998C-2.852,-0.824 -1.9,0.128 -0.726,0.128C0.449,0.128 1.4,-0.824 1.4,-1.998C1.4,-3.173 0.448,-4.124 -0.726,-4.124" style="fill:rgb(185,202,210);fill-rule:nonzero;"/>
            </g>
            <g transform="matrix(-2.67831,-3.19183,-3.19183,2.67831,251.636,257.382)">
                <path d="M-1.628,-3.492C-2.802,-3.493 -3.755,-2.541 -3.754,-1.367C-3.755,-0.193 -2.802,0.759 -1.628,0.759C-0.454,0.759 0.498,-0.192 0.497,-1.367C0.498,-2.54 -0.455,-3.493 -1.628,-3.492" style="fill:rgb(185,202,210);fill-rule:nonzero;"/>
            </g>
            <g transform="matrix(-1.42472,-3.91552,-3.91552,1.42472,217.047,112.247)">
                <path d="M-1.998,-2.853C-3.172,-2.853 -4.124,-1.901 -4.124,-0.727C-4.124,0.447 -3.173,1.399 -1.998,1.399C-0.824,1.399 0.128,0.447 0.128,-0.726C0.128,-1.901 -0.823,-2.854 -1.998,-2.853" style="fill:rgb(185,202,210);fill-rule:nonzero;"/>
            </g>
            <g transform="matrix(-0.723267,-4.10341,-4.10341,0.723267,255.591,101.161)">
                <path d="M-2.093,-2.495C-3.267,-2.496 -4.219,-1.545 -4.219,-0.37C-4.219,0.805 -3.268,1.756 -2.093,1.756C-0.919,1.756 0.033,0.805 0.033,-0.369C0.032,-1.544 -0.919,-2.496 -2.093,-2.495" style="fill:rgb(185,202,210);fill-rule:nonzero;"/>
            </g>
            <g transform="matrix(-3.91552,-1.42472,-1.42472,3.91552,89.5259,252.933)">
                <path d="M-0.726,-4.124C-1.901,-4.124 -2.853,-3.172 -2.852,-1.998C-2.852,-0.824 -1.9,0.128 -0.726,0.128C0.449,0.128 1.4,-0.824 1.4,-1.998C1.4,-3.173 0.449,-4.123 -0.726,-4.124" style="fill:rgb(185,202,210);fill-rule:nonzero;"/>
            </g>
            <g transform="matrix(-3.6086,-2.08305,-2.08305,3.6086,103.29,216.948)">
                <path d="M-1.063,-3.968C-2.238,-3.968 -3.189,-3.015 -3.189,-1.842C-3.189,-0.667 -2.238,0.284 -1.063,0.285C0.112,0.284 1.063,-0.668 1.063,-1.842C1.062,-3.016 0.111,-3.968 -1.063,-3.968" style="fill:rgb(185,202,210);fill-rule:nonzero;"/>
            </g>
            <g transform="matrix(-3.19183,-2.67831,-2.67831,3.19183,123.588,183.675)">
                <path d="M-1.366,-3.755C-2.54,-3.755 -3.493,-2.803 -3.492,-1.629C-3.492,-0.455 -2.54,0.497 -1.366,0.496C-0.191,0.497 0.76,-0.455 0.76,-1.629C0.76,-2.803 -0.192,-3.754 -1.366,-3.755" style="fill:rgb(185,202,210);fill-rule:nonzero;"/>
            </g>
            <g transform="matrix(-2.67831,-3.19183,-3.19183,2.67831,149.886,154.384)">
                <path d="M-1.628,-3.492C-2.802,-3.493 -3.755,-2.541 -3.754,-1.367C-3.755,-0.193 -2.802,0.759 -1.628,0.759C-0.454,0.759 0.498,-0.192 0.497,-1.367C0.498,-2.54 -0.455,-3.492 -1.628,-3.492" style="fill:rgb(185,202,210);fill-rule:nonzero;"/>
            </g>
            <g transform="matrix(-2.08305,-3.6086,-3.6086,2.08305,181.39,130.241)">
                <path d="M-1.842,-3.189C-3.016,-3.189 -3.967,-2.237 -3.968,-1.064C-3.967,0.111 -3.016,1.063 -1.842,1.063C-0.667,1.063 0.285,0.112 0.284,-1.063C0.285,-2.237 -0.667,-3.188 -1.842,-3.189" style="fill:rgb(185,202,210);fill-rule:nonzero;"/>
            </g>
            <g transform="matrix(-0.723267,4.10341,4.10341,0.723267,260.969,520.724)">
                <path d="M2.095,-2.496C0.92,-2.496 -0.032,-1.543 -0.032,-0.37C-0.032,0.805 0.921,1.757 2.095,1.756C3.269,1.757 4.221,0.804 4.22,-0.37C4.221,-1.544 3.268,-2.495 2.095,-2.496" style="fill:rgb(185,202,210);fill-rule:nonzero;"/>
            </g>
            <g transform="matrix(-1.42503,3.91541,3.91541,1.42503,227.782,512.596)">
                <path d="M1.998,-2.853C0.824,-2.854 -0.127,-1.902 -0.128,-0.727C-0.128,0.447 0.824,1.399 1.998,1.398C3.173,1.399 4.124,0.447 4.124,-0.727C4.124,-1.902 3.173,-2.852 1.998,-2.853" style="fill:rgb(185,202,210);fill-rule:nonzero;"/>
            </g>
            <g transform="matrix(-2.08305,3.6086,3.6086,2.08305,196.133,499.205)">
                <path d="M1.842,-3.189C0.667,-3.189 -0.285,-2.237 -0.284,-1.063C-0.284,0.111 0.667,1.063 1.842,1.063C3.016,1.063 3.968,0.111 3.968,-1.064C3.967,-2.237 3.016,-3.189 1.842,-3.189" style="fill:rgb(185,202,210);fill-rule:nonzero;"/>
            </g>
            <g transform="matrix(-2.67831,3.19183,3.19183,2.67831,166.8,480.749)">
                <path d="M1.628,-3.492C0.455,-3.492 -0.498,-2.54 -0.497,-1.367C-0.498,-0.192 0.455,0.76 1.628,0.759C2.803,0.76 3.755,-0.193 3.755,-1.366C3.755,-2.541 2.803,-3.492 1.628,-3.492" style="fill:rgb(185,202,210);fill-rule:nonzero;"/>
            </g>
            <g transform="matrix(-3.19183,2.67831,2.67831,3.19183,140.588,457.53)">
                <path d="M1.366,-3.755C0.193,-3.755 -0.759,-2.803 -0.76,-1.629C-0.76,-0.455 0.191,0.497 1.366,0.496C2.54,0.497 3.492,-0.455 3.492,-1.629C3.493,-2.803 2.54,-3.755 1.366,-3.755" style="fill:rgb(185,202,210);fill-rule:nonzero;"/>
            </g>
            <g transform="matrix(-3.6086,2.08305,2.08305,3.6086,118.288,429.969)">
                <path d="M1.063,-3.968C-0.111,-3.968 -1.063,-3.016 -1.063,-1.842C-1.063,-0.668 -0.112,0.284 1.063,0.285C2.237,0.285 3.189,-0.667 3.189,-1.842C3.189,-3.015 2.237,-3.968 1.063,-3.968" style="fill:rgb(185,202,210);fill-rule:nonzero;"/>
            </g>
            <g transform="matrix(-3.91552,1.42472,1.42472,3.91552,100.668,398.648)">
                <path d="M0.726,-4.124C-0.449,-4.123 -1.4,-3.173 -1.4,-1.998C-1.4,-0.824 -0.449,0.128 0.726,0.128C1.9,0.128 2.852,-0.824 2.852,-1.998C2.853,-3.172 1.901,-4.125 0.726,-4.124" style="fill:rgb(185,202,210);fill-rule:nonzero;"/>
            </g>
            <g transform="matrix(-4.10341,0.723267,0.723267,4.10341,88.4546,364.3)">
                <path d="M0.369,-4.219C-0.805,-4.22 -1.757,-3.268 -1.757,-2.094C-1.757,-0.919 -0.806,0.032 0.369,0.032C1.543,0.033 2.495,-0.919 2.495,-2.093C2.495,-3.268 1.543,-4.219 0.369,-4.219" style="fill:rgb(185,202,210);fill-rule:nonzero;"/>
            </g>
            <g transform="matrix(-4.16667,0,0,4.16667,82.2487,327.838)">
                <path d="M0,-4.252C-1.175,-4.252 -2.126,-3.3 -2.126,-2.126C-2.126,-0.952 -1.175,0 0,0C1.174,0 2.126,-0.952 2.126,-2.126C2.126,-3.3 1.174,-4.252 0,-4.252" style="fill:rgb(185,202,210);fill-rule:nonzero;"/>
            </g>
            <g transform="matrix(-4.10341,-0.723267,-0.723267,4.10341,82.5209,290.322)">
                <path d="M-0.368,-4.22C-1.543,-4.22 -2.495,-3.268 -2.494,-2.094C-2.494,-0.92 -1.542,0.033 -0.368,0.031C0.807,0.031 1.758,-0.92 1.757,-2.094C1.758,-3.269 0.806,-4.22 -0.368,-4.22" style="fill:rgb(185,202,210);fill-rule:nonzero;"/>
            </g>
            <g transform="matrix(4.10341,0.723267,0.723267,-4.10341,501.965,364.986)">
                <path d="M0.369,-0.032C-0.805,-0.032 -1.758,0.92 -1.757,2.094C-1.757,3.269 -0.805,4.221 0.369,4.219C1.544,4.22 2.496,3.268 2.495,2.094C2.495,0.919 1.543,-0.033 0.369,-0.032" style="fill:rgb(185,202,210);fill-rule:nonzero;"/>
            </g>
            <g transform="matrix(3.91552,1.42472,1.42472,-3.91552,489.632,399.298)">
                <path d="M0.727,-0.128C-0.448,-0.128 -1.399,0.824 -1.399,1.998C-1.399,3.173 -0.446,4.124 0.727,4.124C1.902,4.124 2.854,3.172 2.854,1.998C2.853,0.823 1.902,-0.128 0.727,-0.128" style="fill:rgb(185,202,210);fill-rule:nonzero;"/>
            </g>
            <g transform="matrix(3.60836,2.08348,2.08348,-3.60836,471.906,430.567)">
                <path d="M1.063,-0.285C-0.111,-0.285 -1.063,0.667 -1.063,1.841C-1.062,3.016 -0.111,3.967 1.063,3.967C2.238,3.968 3.189,3.015 3.189,1.841C3.189,0.667 2.238,-0.284 1.063,-0.285" style="fill:rgb(185,202,210);fill-rule:nonzero;"/>
            </g>
            <g transform="matrix(3.19183,2.67831,2.67831,-3.19183,449.508,458.058)">
                <path d="M1.366,-0.497C0.193,-0.498 -0.76,0.455 -0.759,1.628C-0.76,2.803 0.193,3.755 1.366,3.754C2.541,3.755 3.493,2.802 3.492,1.628C3.493,0.454 2.54,-0.498 1.366,-0.497" style="fill:rgb(185,202,210);fill-rule:nonzero;"/>
            </g>
            <g transform="matrix(2.67783,3.19223,3.19223,-2.67783,423.208,481.191)">
                <path d="M1.629,-0.76C0.456,-0.76 -0.496,0.191 -0.496,1.366C-0.497,2.54 0.455,3.492 1.629,3.492C2.804,3.492 3.755,2.542 3.755,1.366C3.755,0.192 2.803,-0.759 1.629,-0.76" style="fill:rgb(185,202,210);fill-rule:nonzero;"/>
            </g>
            <g transform="matrix(2.08305,3.6086,3.6086,-2.08305,393.81,499.552)">
                <path d="M1.841,-1.063C0.667,-1.063 -0.284,-0.111 -0.285,1.062C-0.285,2.237 0.667,3.189 1.842,3.189C3.016,3.189 3.967,2.237 3.967,1.063C3.968,-0.111 3.016,-1.063 1.841,-1.063" style="fill:rgb(185,202,210);fill-rule:nonzero;"/>
            </g>
            <g transform="matrix(1.42503,3.91541,3.91541,-1.42503,362.109,512.836)">
                <path d="M1.997,-1.399C0.823,-1.398 -0.128,-0.447 -0.128,0.728C-0.128,1.901 0.823,2.853 1.997,2.853C3.171,2.852 4.123,1.901 4.124,0.727C4.123,-0.447 3.172,-1.399 1.997,-1.399" style="fill:rgb(185,202,210);fill-rule:nonzero;"/>
            </g>
            <g transform="matrix(0.723267,4.10341,4.10341,-0.723267,328.89,520.846)">
                <path d="M2.094,-1.757C0.921,-1.757 -0.032,-0.805 -0.032,0.37C-0.032,1.543 0.92,2.495 2.094,2.495C3.268,2.496 4.221,1.543 4.221,0.369C4.22,-0.804 3.268,-1.757 2.094,-1.757" style="fill:rgb(185,202,210);fill-rule:nonzero;"/>
            </g>
            <g transform="matrix(0,4.16667,4.16667,0,294.924,523.49)">
                <path d="M2.126,-2.126C0.952,-2.126 0,-1.174 0,0C0,1.174 0.952,2.126 2.126,2.126C3.3,2.126 4.252,1.174 4.252,0C4.252,-1.174 3.3,-2.126 2.126,-2.126" style="fill:rgb(185,202,210);fill-rule:nonzero;"/>
            </g>
        </g>
    </g>
</svg>
